<svg xmlns="http://www.w3.org/2000/svg" fill="none" viewBox="0 0 395 256">
  <path fill="#1EA24B" d="M1.42 152.697h1.42c2.842 1.539 6.038 2.9 9.589 4.084 3.67 1.065 7.635 1.894 11.896 2.485 4.38.592 9.055.888 14.027.888 5.681 0 10.712-.532 15.092-1.598 4.498-1.183 7.99-3.077 10.476-5.681 2.604-2.723 3.906-6.452 3.906-11.186 0-5.682-1.657-9.766-4.972-12.252-3.196-2.485-8.049-4.32-14.56-5.504l-15.624-2.841c-5.918-1.065-11.363-2.959-16.335-5.682-4.972-2.84-8.937-6.747-11.896-11.718C1.479 98.72 0 92.447 0 84.872c0-9.47 2.19-17.224 6.57-23.26 4.498-6.156 10.712-10.654 18.643-13.495 8.049-2.959 17.4-4.439 28.053-4.439 4.972 0 9.884.474 14.737 1.42 4.972.948 9.056 2.132 12.252 3.552v16.335h-1.42c-2.842-1.42-6.452-2.722-10.832-3.906-4.26-1.184-9.41-1.776-15.447-1.776-6.628 0-12.665.829-18.11 2.486-5.327 1.657-9.588 4.32-12.784 7.99-3.078 3.67-4.617 8.463-4.617 14.382 0 7.457 1.953 12.665 5.86 15.625 3.906 2.959 9.292 5.09 16.157 6.392l15.625 2.841c6.037 1.065 11.304 2.9 15.802 5.504 4.498 2.604 7.99 6.096 10.476 10.475 2.604 4.262 3.906 9.588 3.906 15.98 0 5.8-1.124 10.89-3.373 15.27-2.25 4.38-5.445 8.049-9.588 11.008-4.025 2.841-8.878 4.972-14.56 6.392-5.682 1.421-12.014 2.131-18.998 2.131-4.972 0-9.706-.296-14.205-.888-4.38-.592-8.522-1.361-12.428-2.308-3.788-.947-7.22-2.012-10.299-3.196v-16.69Z"/>
  <path fill="#1EA24B" d="M66.169 75.401h99.43v14.915h-41.192v112.925h-17.046V90.316H66.169V75.401Z"/>
  <path fill="#1EA24B" d="m146.542 129.26 14.204-85.226c1.184-7.103 2.9-13.376 5.149-18.821 2.368-5.445 5.504-10.062 9.411-13.85 3.906-3.787 8.937-6.628 15.092-8.522C196.553.947 204.069 0 212.947 0c4.261 0 8.523.237 12.784.71 4.38.355 8.878 1.066 13.494 2.13l.355 2.132c-.355 2.367-.651 5.326-.887 8.877a318.06 318.06 0 0 0-.178 10.654V129.26H221.47V17.577c.118-2.13.355-4.142.71-6.036l2.841 5.15c-1.539-.711-3.433-1.185-5.682-1.421-2.131-.237-4.498-.355-7.102-.355-7.812 0-14.027 1.065-18.643 3.196-4.498 2.13-7.931 5.326-10.298 9.587-2.249 4.262-3.966 9.707-5.15 16.336l-14.204 85.226h-17.4Zm17.755-39.062V75.283h64.275v14.915h-64.275Zm94.341 113.043V75.401h17.045v112.925h54.687v14.915h-71.732Z"/>
  <path fill="#1EA24B" d="M333.566 123.933h-20.951v-14.915h20.241c6.037 0 10.594-1.42 13.672-4.261 3.196-2.841 5.741-6.392 7.634-10.653l22.727-48.295h17.756v1.42l-24.858 51.846c-2.13 4.617-4.794 8.819-7.99 12.607-3.196 3.788-7.102 6.806-11.718 9.055-4.498 2.131-10.003 3.196-16.513 3.196Zm-30.539 49.715V45.809h17.045v127.839h-17.045Zm53.976-61.079L395 172.228v1.42h-19.176l-32.315-52.556 13.494-8.523Z"/>
  <path fill="#226137" d="M168.194 255.317v-81.419c0-7.184.939-13.17 2.817-17.959 1.968-4.79 4.874-8.382 8.72-10.776 3.935-2.395 8.854-3.592 14.757-3.592 2.147 0 4.83-.3 6.44 0 1.699.299 37.381-.15 38.723.449l.853 2.06v9.464c-1.342-.599-39.04.299-40.381 0-1.252-.299-3.488 0-5.635 0-5.455 0-9.167 1.646-11.135 4.939-1.878 3.193-2.817 8.331-2.817 15.415v81.419h-12.342Zm-16.387-69.445 2.559-11.974h46.562v11.974h-49.121Z"/>
  <path fill="#226137" d="M147.543 164.506c-2.606 0-4.847-.796-6.723-2.389-1.772-1.692-2.658-3.882-2.658-6.57 0-2.687.886-4.827 2.658-6.42 1.876-1.692 4.117-2.538 6.723-2.538 2.71 0 4.951.846 6.723 2.538 1.772 1.593 2.658 3.733 2.658 6.42 0 2.688-.886 4.878-2.658 6.57-1.772 1.593-4.013 2.389-6.723 2.389Zm-7.192 90.811v-50.796c0-1.99-.052-4.579-.157-7.764 0-3.185-.104-6.321-.312-9.406-.105-3.086-.365-10.353-.782-12.145v-1.372h15.636v81.482l-14.385.001Zm61.932.538h-15.617v-12.631h15.088c4.5 0 7.897-1.203 10.191-3.609 2.382-2.406 4.279-5.414 5.691-9.023l18.661-56.19h11.03l-18.044 60.401c-1.588 3.91-3.574 7.468-5.956 10.676-2.382 3.208-5.294 5.765-8.735 7.67-3.353 1.804-7.456 2.706-12.309 2.706Z"/>
  <path fill="#226137" d="m214.239 237.059-19.588-61.403v-1.805h12.706l17.911 56.942-11.029 6.266Z"/>
  <circle cx="148" cy="154" r="14" fill="#226137"/>
  <path fill="#1D1919" d="M155 154a7 7 0 1 1-14 0 7 7 0 0 1 14 0Z"/>
  <path fill="#1EA24B" d="M156 148.5a3.5 3.5 0 1 1-7 0 3.5 3.5 0 0 1 7 0Z"/>
</svg>
